<svg xmlns="http://www.w3.org/2000/svg" width="1024" height="1024" viewBox="0 0 1024 1024" version="1.1">
	<path d="M 0 512.001 L 0 1024.002 512.250 1023.751 L 1024.500 1023.500 1024.751 511.750 L 1025.002 0 512.501 0 L 0 0 0 512.001 M 0.496 512.500 C 0.496 794.100, 0.610 909.151, 0.750 768.168 C 0.890 627.186, 0.890 396.786, 0.750 256.168 C 0.610 115.551, 0.496 230.900, 0.496 512.500 M 503.094 245.280 C 497.716 246.769, 494.442 250.640, 495.384 254.395 C 496.407 258.471, 500.668 260, 511 260 C 521.270 260, 525.593 258.468, 526.596 254.475 C 527.357 251.440, 524.873 247.282, 521.541 246.016 C 517.318 244.410, 507.628 244.023, 503.094 245.280 M 520.500 266.090 C 514.349 268.332, 508.835 268.460, 502.409 266.511 C 499.709 265.692, 497.163 265.017, 496.750 265.011 C 496.337 265.005, 496 272.647, 496 281.994 L 496 298.987 511 306.500 L 526 314.013 526 289.006 C 526 275.253, 525.888 264.060, 525.750 264.134 C 525.612 264.207, 523.250 265.088, 520.500 266.090 M 346.284 283.639 C 342.674 284.439, 338.886 289.676, 339.638 292.827 C 339.989 294.297, 340.717 296.060, 341.257 296.745 C 343.053 299.027, 349.581 300.223, 358.257 299.859 C 365.733 299.546, 367.179 299.182, 369.467 297.031 C 371.492 295.129, 372.026 293.775, 371.797 291.131 C 371.320 285.620, 367.933 283.820, 357.351 283.454 C 352.483 283.285, 347.503 283.369, 346.284 283.639 M 600.251 295.491 C 593.536 298.409, 593.659 305.706, 600.470 308.552 C 605.139 310.503, 617.879 310.432, 622.888 308.428 C 630.279 305.471, 630.585 298.396, 623.452 295.415 C 619.026 293.566, 604.571 293.613, 600.251 295.491 M 475 302.014 C 472.561 302.850, 438.661 313.118, 400.500 324.578 C 390.050 327.717, 380.712 330.687, 379.750 331.178 C 378.596 331.766, 378 333.241, 378 335.507 C 378 338.678, 377.613 339.111, 373 341.095 C 370.250 342.278, 368 343.554, 368 343.930 C 368 344.306, 371.085 346.106, 374.855 347.930 L 381.711 351.246 402.605 344.648 C 429.991 335.999, 475.082 322.238, 491.750 317.442 C 499.038 315.345, 505 313.345, 505 312.998 C 505 311.917, 481.611 300.976, 479.500 301.070 C 478.400 301.118, 476.375 301.543, 475 302.014 M 366.500 305.634 C 362.440 307.150, 348.874 307.060, 342.743 305.476 L 339.986 304.764 340.243 370.524 L 340.500 436.284 343.323 438.392 C 345.750 440.204, 347.537 440.500, 356.051 440.500 C 365.344 440.500, 366.112 440.342, 368.515 437.939 L 371.076 435.379 371.102 413.439 C 371.117 401.373, 371.100 389.591, 371.064 387.259 C 371.003 383.189, 370.780 382.893, 365.581 379.959 C 362.601 378.277, 359.665 376.301, 359.057 375.568 C 358.320 374.681, 358.042 368.630, 358.225 357.452 L 358.500 340.669 365 338.074 L 371.500 335.479 371.775 319.739 C 371.927 311.083, 371.702 304.032, 371.275 304.070 C 370.849 304.109, 368.700 304.813, 366.500 305.634 M 621.500 316.090 C 615.335 318.337, 610.147 318.450, 602.661 316.500 C 599.494 315.675, 596.689 315, 596.428 315 C 596.166 315, 596.076 322.761, 596.226 332.247 L 596.500 349.495 611 357.199 C 618.975 361.436, 626.063 364.925, 626.750 364.951 C 627.719 364.989, 628 359.259, 628 339.500 C 628 325.475, 627.663 314.060, 627.250 314.134 C 626.837 314.207, 624.250 315.088, 621.500 316.090 M 485 326.617 C 469.325 331.290, 447.725 337.843, 437 341.180 C 426.275 344.516, 411.538 349.098, 404.250 351.360 C 396.962 353.623, 391 355.730, 391 356.042 C 391 356.355, 397.292 359.868, 404.983 363.850 L 418.965 371.089 431.233 367.253 L 443.500 363.417 444.343 358.459 C 446.008 348.672, 447.122 346.699, 452.510 344 C 462.278 339.106, 484.592 341.566, 487.487 347.856 C 488.030 349.035, 488.764 350, 489.118 350 C 489.472 350, 497.578 347.583, 507.131 344.630 C 516.684 341.676, 529.673 337.760, 535.996 335.928 L 547.492 332.597 532.496 325.351 C 524.248 321.366, 516.600 318.109, 515.500 318.114 C 514.400 318.118, 500.675 321.945, 485 326.617 M 531.500 344.197 C 519.400 348.029, 505.113 352.538, 499.750 354.216 L 490 357.268 490 370.109 L 490 382.950 492.750 381.903 C 494.262 381.326, 503.600 378.457, 513.500 375.525 C 523.400 372.594, 541.765 367.002, 554.311 363.097 C 566.857 359.193, 579.120 355.495, 581.561 354.880 C 584.003 354.266, 586 353.419, 586 353 C 586 351.977, 556.574 336.969, 554.853 337.114 C 554.109 337.177, 543.600 340.365, 531.500 344.197 M 704.942 339.948 C 698.148 342.010, 695.818 345.733, 698.010 351.024 C 699.668 355.027, 702.917 356, 714.624 356 C 724.929 356, 725.216 355.938, 728.077 353.077 C 729.685 351.469, 731 349.280, 731 348.212 C 731 345.114, 727.225 341.157, 723.205 340.040 C 718.947 338.858, 708.705 338.806, 704.942 339.948 M 457.419 349.075 C 452.969 350.367, 450.799 353.179, 451.180 357.156 C 451.659 362.156, 456.054 363.997, 467.500 363.995 C 478.793 363.992, 483 362.004, 483 356.670 C 483 354.729, 482.254 352.635, 481.235 351.713 C 477.683 348.498, 464.453 347.033, 457.419 349.075 M 366 360.918 L 366 369.836 386.750 381.059 C 398.163 387.231, 415.213 396.493, 424.639 401.641 C 434.066 406.788, 442.279 411, 442.889 411 C 443.620 411, 443.997 408.002, 443.992 402.250 L 443.984 393.500 439.742 391.163 C 423.376 382.147, 366.841 352, 366.299 352 C 366.134 352, 366 356.013, 366 360.918 M 586 360.658 C 581.875 362.011, 563.650 367.618, 545.500 373.118 C 527.350 378.618, 507.438 384.692, 501.250 386.615 L 490 390.111 490 395.349 L 490 400.586 484.751 403.157 L 479.501 405.727 488.001 410.107 C 492.675 412.517, 497.028 414.629, 497.673 414.802 C 498.318 414.976, 508.768 411.920, 520.894 408.012 C 540.911 401.561, 543.104 400.632, 544.699 397.932 C 548.221 391.971, 559.959 388.776, 570.927 390.793 C 576.233 391.769, 576.906 391.603, 600.927 383.400 C 614.442 378.785, 625.950 374.849, 626.500 374.654 C 627.523 374.292, 595.642 357.920, 594.262 358.099 C 593.843 358.153, 590.125 359.304, 586 360.658 M 725 362.064 C 719.452 364.313, 709.995 364.509, 703.409 362.511 C 700.709 361.692, 698.388 361.017, 698.250 361.011 C 698.112 361.005, 698 370.010, 698 381.022 L 698 401.045 706.500 406.528 L 715 412.012 715 431.423 L 715 450.835 710.750 452.420 C 708.413 453.292, 704.700 454.610, 702.500 455.349 C 698.512 456.688, 698.499 456.710, 698.197 462.441 C 697.814 469.714, 699.514 472.520, 705.247 474.076 C 710.532 475.511, 721.789 474.677, 725.910 472.546 C 727.594 471.676, 729.215 469.959, 729.512 468.732 C 729.810 467.504, 729.929 442.592, 729.777 413.370 L 729.500 360.240 725 362.064 M 451.038 431.013 L 450.935 493.026 453.422 495.513 C 454.790 496.881, 456.942 498.034, 458.205 498.077 C 459.467 498.119, 461.400 498.348, 462.500 498.585 C 467.110 499.582, 476.087 497.798, 479.064 495.293 L 482.034 492.793 481.767 468.163 L 481.500 443.532 475.727 439.565 L 469.953 435.597 470.227 419.097 L 470.500 402.596 476.750 400.211 L 483 397.825 483 383.413 C 483 375.486, 482.663 369.005, 482.250 369.011 C 481.837 369.017, 479.291 369.692, 476.591 370.511 C 470.396 372.390, 464.028 372.387, 457 370.500 C 453.975 369.688, 451.419 369.018, 451.320 369.012 C 451.222 369.005, 451.094 396.906, 451.038 431.013 M 434.540 373.482 L 427.580 375.764 434.765 379.382 C 438.717 381.372, 442.186 383, 442.475 383 C 442.764 383, 443 380.300, 443 377 C 443 373.700, 442.663 371.045, 442.250 371.100 C 441.837 371.155, 438.368 372.226, 434.540 373.482 M 611.500 387.002 C 598.300 391.326, 586.715 395.076, 585.756 395.336 C 584.121 395.780, 584.135 396.079, 585.984 400.155 C 587.484 403.459, 587.961 406.715, 587.978 413.750 C 587.990 418.837, 588.189 423, 588.420 423 C 588.651 423, 592.589 421.694, 597.170 420.097 C 601.752 418.500, 619.082 412.876, 635.682 407.598 C 652.282 402.321, 667.115 397.527, 668.644 396.945 C 671.306 395.933, 670.733 395.526, 655.242 387.444 C 646.342 382.800, 638.259 379.032, 637.280 379.070 C 636.301 379.109, 624.700 382.678, 611.500 387.002 M 319.500 390.042 C 317.300 391.097, 306.275 396.170, 295 401.315 C 233.599 429.333, 222.730 434.539, 219.035 437.702 C 211.582 444.082, 212.784 452.046, 222.123 458.153 C 225.080 460.087, 238.525 467.301, 252 474.185 C 276.716 486.811, 389.284 546.454, 430 568.497 C 436.325 571.921, 455.675 582.098, 473 591.112 L 504.500 607.500 512.577 607.487 L 520.654 607.473 541.077 597.282 C 552.310 591.677, 566 584.692, 571.500 581.760 C 577 578.828, 589.150 572.445, 598.500 567.576 C 607.850 562.707, 624.275 554.110, 635 548.471 C 674.227 527.845, 743.261 492.180, 779.185 473.979 C 807.350 459.711, 809.910 457.317, 807.086 447.894 C 805.552 442.773, 802.076 440.524, 783.359 432.543 C 775.187 429.058, 764.112 424.150, 758.750 421.636 L 749 417.066 749 424.566 L 749 432.066 758.250 436.337 C 763.337 438.686, 772.225 442.578, 778 444.985 C 787.807 449.072, 791.985 451.442, 790.940 452.324 C 790.698 452.528, 774.814 460.672, 755.642 470.420 C 736.471 480.169, 695.071 501.552, 663.642 517.938 C 632.214 534.324, 590.300 556.179, 570.500 566.504 C 516.552 594.637, 519.373 593.319, 513.022 593.357 C 509.413 593.379, 506.114 592.691, 503.500 591.371 C 497.517 588.351, 459.664 568.418, 442 558.986 C 433.475 554.433, 419.525 547.029, 411 542.532 C 402.475 538.034, 381.100 526.684, 363.500 517.310 C 298.529 482.703, 265.087 465.100, 249 457.039 C 239.925 452.491, 232.069 448.369, 231.543 447.878 C 229.812 446.264, 233.164 444.301, 251.500 436.188 C 267.332 429.184, 294.554 416.785, 316.750 406.468 L 324 403.099 324 395.549 C 324 391.397, 323.887 388.028, 323.750 388.062 C 323.613 388.096, 321.700 388.987, 319.500 390.042 M 557.557 398.039 C 553.234 398.816, 549 402.806, 549 406.101 C 549 409.697, 553.252 412.763, 559.284 413.516 C 565.894 414.342, 574.648 413.350, 577.674 411.431 C 582.359 408.462, 581.285 401.825, 575.756 399.583 C 571.581 397.890, 562.617 397.129, 557.557 398.039 M 675.989 401.447 C 674.608 402.198, 662.008 406.448, 647.989 410.891 C 633.970 415.334, 614.694 421.564, 605.153 424.735 L 587.806 430.500 587.852 444 C 587.888 454.523, 588.185 457.446, 589.199 457.254 C 589.915 457.118, 604.834 452.074, 622.354 446.045 C 639.873 440.016, 666.198 431.189, 680.854 426.429 C 695.509 421.669, 707.889 417.413, 708.365 416.972 C 708.841 416.531, 707.451 415.047, 705.276 413.674 C 701.683 411.406, 679.399 399.945, 678.767 400.040 C 678.620 400.062, 677.370 400.695, 675.989 401.447 M 523.765 413.919 C 514.011 416.988, 506.023 419.731, 506.015 420.013 C 505.997 420.637, 541.108 438.232, 541.516 437.803 C 542.034 437.258, 542.493 409.157, 541.990 408.742 C 541.720 408.519, 533.519 410.849, 523.765 413.919 M 478 422.509 L 478 431.799 509.750 449.787 L 541.500 467.775 542.080 458.638 C 542.399 453.612, 542.509 449.202, 542.326 448.838 C 542.142 448.474, 538.281 446.161, 533.746 443.698 C 529.211 441.235, 514.813 433.370, 501.750 426.220 L 478 413.220 478 422.509 M 574.500 419.755 C 569.621 421.184, 559.479 421.029, 552.750 419.423 L 550 418.767 550 476.811 L 550 534.855 552.635 536.927 C 554.848 538.668, 556.681 539, 564.088 539 C 573.639 539, 577.153 537.966, 578.910 534.640 C 579.721 533.104, 579.964 516.387, 579.770 475.395 L 579.500 418.290 574.500 419.755 M 692 429.664 C 683.475 432.504, 661.875 439.861, 644 446.013 C 626.125 452.165, 606.212 459.017, 599.750 461.239 L 588 465.281 588 475.640 C 588 481.615, 588.408 486, 588.963 486 C 589.493 486, 601.980 481.789, 616.713 476.641 C 631.446 471.494, 658.195 462.214, 676.155 456.018 L 708.810 444.752 708.318 434.626 C 708.047 429.057, 707.752 424.500, 707.662 424.500 C 707.573 424.500, 700.525 426.824, 692 429.664 M 316 452.536 C 316 452.852, 318.440 454.228, 321.422 455.593 C 338.251 463.297, 372.383 462.967, 388.103 454.948 C 392.876 452.512, 392.815 451.619, 387.969 453.009 C 381.495 454.866, 357.626 456.267, 343.645 455.611 C 331.397 455.037, 327.301 454.531, 318.250 452.473 C 317.012 452.192, 316 452.220, 316 452.536 M 429.500 510.914 C 443.289 520.549, 480.757 521.673, 500.209 513.034 C 504.631 511.070, 508.491 507.830, 504.654 509.303 C 498.878 511.519, 487.480 512.500, 467.500 512.500 C 447.529 512.500, 441.440 512.002, 429 509.350 C 426.611 508.841, 426.633 508.910, 429.500 510.914 M 718.422 641.343 C 718.138 642.082, 718.040 650.408, 718.203 659.845 C 718.366 669.282, 718.410 677.002, 718.300 677.001 C 718.190 677.001, 716.165 675.696, 713.800 674.102 C 701.382 665.735, 684.213 668.296, 673.601 680.099 C 666.539 687.954, 664.583 694.113, 664.583 708.500 C 664.583 723.145, 666.559 729.168, 674.050 737.365 C 680.740 744.685, 687.100 747.466, 697 747.401 C 705.488 747.345, 709.850 745.827, 715.323 741.022 L 719 737.793 719 740.315 C 719 745.764, 719.462 746, 730.107 746 L 740 746 740 693 L 740 640 729.469 640 C 721.575 640, 718.808 640.337, 718.422 641.343 M 113.456 644.718 C 113.838 645.698, 120.597 664.500, 128.476 686.500 C 136.356 708.500, 144.359 730.775, 146.261 736 L 149.719 745.500 162.977 745.500 L 176.236 745.500 184.598 722 C 192.915 698.629, 204.731 665.574, 210.080 650.721 L 212.882 642.941 200.352 643.221 L 187.822 643.500 180.941 666.500 C 170.539 701.269, 163.688 722.096, 162.930 721.255 C 162.381 720.647, 146.770 673.362, 139.074 649 L 137.337 643.500 125.049 643.218 C 113.609 642.956, 112.810 643.059, 113.456 644.718 M 384.500 651.914 L 374.500 654.668 374.500 662.584 L 374.500 670.500 368.500 671 L 362.500 671.500 362.500 679.500 L 362.500 687.500 368.166 687.797 L 373.832 688.095 374.166 709.797 C 374.489 730.800, 374.581 731.642, 377 735.911 C 382.703 745.973, 392.703 749.637, 407.036 746.917 L 414.500 745.500 414.788 736.809 L 415.076 728.118 411.795 729.059 C 404.826 731.057, 399.048 729.595, 397.110 725.343 C 396.432 723.855, 396 716.124, 396 705.490 L 396 688.075 405.250 687.788 L 414.500 687.500 414.790 679.250 L 415.081 671 405.540 671 L 396 671 396 660 C 396 653.950, 395.663 649.036, 395.250 649.080 C 394.837 649.124, 390 650.400, 384.500 651.914 M 230.301 671.012 C 213.382 676.551, 204.229 691.261, 205.222 711.313 C 205.959 726.191, 212.074 736.597, 223.674 742.711 C 236.495 749.470, 251.130 749.588, 266.367 743.057 L 271.217 740.978 270.843 733.556 C 270.637 729.474, 270.181 725.848, 269.831 725.498 C 269.480 725.147, 267.463 725.730, 265.347 726.793 C 253.091 732.951, 241.193 733.673, 234.619 728.659 C 230.699 725.669, 228.639 722.348, 227.541 717.250 L 226.841 714 251.031 714 L 275.221 714 274.814 703.250 C 274.341 690.750, 272.551 685.722, 266.066 678.688 C 258.062 670.004, 243.150 666.804, 230.301 671.012 M 322.994 669.883 C 318.722 671.269, 314.177 673.906, 310.513 677.122 L 307 680.207 307 675.604 L 307 671 296.500 671 L 286 671 286 708.500 L 286 746 296.500 746 L 307 746 307 724.366 C 307 700.102, 307.644 696.423, 312.791 691.276 C 315.970 688.097, 316.497 687.925, 322.225 688.204 C 327.909 688.481, 328.487 688.742, 331.396 692.341 L 334.500 696.183 334.840 721.091 L 335.179 746 345.692 746 L 356.205 746 355.736 717.750 C 355.446 700.234, 354.822 688.085, 354.094 685.775 C 352.413 680.443, 347.151 674.013, 342.500 671.608 C 338.195 669.383, 327.462 668.434, 322.994 669.883 M 542.764 669.972 C 538.284 671.360, 533.260 674.879, 529.517 679.251 L 526 683.360 526 677.180 L 526 671 517 671 L 508 671 508 708.500 L 508 746 518.500 746 L 529 746 529 724.316 C 529 704.428, 529.172 702.277, 531.071 698.353 C 533.939 692.429, 538.501 689.840, 547.164 689.220 L 554.138 688.721 553.819 679.111 L 553.500 669.500 549.500 669.313 C 547.300 669.210, 544.269 669.507, 542.764 669.972 M 577 670.554 C 573.425 671.321, 568.587 672.673, 566.250 673.557 L 562 675.165 562 684.190 C 562 691.036, 562.302 693.081, 563.250 692.664 C 574.291 687.801, 578.287 686.572, 584.268 686.197 C 595.191 685.512, 600 688.952, 600 697.450 L 600 701 589.605 701 C 577.041 701, 567.820 703.463, 562.326 708.287 C 552.875 716.585, 552.430 731.693, 561.373 740.636 C 570.900 750.163, 588.326 750.317, 598.161 740.962 C 602.437 736.894, 603.087 736.452, 602.882 737.750 C 602.816 738.163, 602.816 740.188, 602.882 742.250 L 603 746 612.592 746 L 622.185 746 621.842 717.677 L 621.500 689.354 618.481 683.452 C 616.454 679.490, 614.113 676.645, 611.360 674.796 C 603.188 669.307, 590.250 667.710, 577 670.554 M 776.929 670.303 C 766.529 673.254, 757.902 680.715, 753.135 690.880 C 750.746 695.975, 750.500 697.623, 750.500 708.521 C 750.500 720.070, 750.628 720.802, 753.760 727.163 C 763.351 746.646, 787.470 753.303, 811.359 743.061 L 816.217 740.978 815.843 733.556 C 815.637 729.474, 815.235 725.902, 814.951 725.617 C 814.666 725.333, 810.623 726.645, 805.967 728.533 C 789.809 735.085, 778.387 732.349, 773.548 720.768 C 770.565 713.629, 769.329 714, 796.111 714 L 820.221 714 819.814 703.250 C 819.350 690.974, 817.597 685.880, 811.523 679.157 C 806.041 673.090, 798.782 669.905, 789.304 669.412 C 784.661 669.170, 779.649 669.531, 776.929 670.303 M 424.010 699.716 C 424.019 727.859, 424.072 728.613, 426.381 733.571 C 433.416 748.679, 453.966 752.542, 468.458 741.480 L 473 738.013 473 742.007 L 473 746 483 746 L 493 746 493 708.500 L 493 671 482.500 671 L 472 671 471.978 694.250 C 471.959 714.903, 471.744 717.966, 470.062 721.672 C 466.875 728.692, 459.730 731.585, 452.769 728.677 C 446.012 725.854, 445.530 723.752, 445.274 696 L 445.048 671.500 434.524 671.216 L 424 670.932 424.010 699.716 M 822 671.841 C 822 672.704, 836.147 710.688, 844.778 733 L 849.614 745.500 861.114 745.780 L 872.614 746.060 879.488 728.280 C 883.269 718.501, 889.656 702.030, 893.681 691.677 C 897.707 681.325, 901 672.423, 901 671.895 C 901 671.322, 896.513 671.049, 889.873 671.217 L 878.746 671.500 870.758 696.500 C 866.365 710.250, 862.535 722.175, 862.247 723 C 861.931 723.904, 861.405 723.110, 860.922 721 C 860.276 718.181, 850.424 689.289, 844.981 674.250 L 843.804 671 832.902 671 C 826.906 671, 822 671.378, 822 671.841 M 237.619 685.037 C 233.225 686.349, 230.118 689.864, 228.482 695.373 C 227.667 698.117, 227 700.506, 227 700.682 C 227 700.857, 233.583 701, 241.628 701 L 256.256 701 255.593 696.855 C 254.890 692.457, 251.965 687.565, 249.180 686.130 C 246.348 684.669, 240.653 684.131, 237.619 685.037 M 783 684.630 C 777.130 686.652, 774.124 690.422, 772.543 697.750 L 771.841 701 786.421 701 C 800.880 701, 801 700.981, 800.978 698.750 C 800.944 695.247, 797.416 688.314, 794.834 686.674 C 792.238 685.026, 785.319 683.831, 783 684.630 M 694.898 688.289 C 693.029 689.547, 690.375 692.585, 689 695.039 C 686.849 698.877, 686.500 700.756, 686.500 708.500 C 686.501 719.240, 688.347 723.877, 694.147 727.716 C 700.373 731.836, 709.336 730.706, 714.347 725.169 C 717.707 721.456, 718.526 716.999, 717.997 705.294 C 717.539 695.158, 717.268 693.913, 714.997 691.482 C 709.411 685.504, 701.012 684.170, 694.898 688.289 M 587.380 713.925 C 579.531 715.211, 575.203 720.095, 576.535 726.162 C 577.908 732.413, 586.011 734.888, 592.938 731.173 C 597.355 728.804, 600 723.782, 600 717.766 L 600 713 595.750 713.125 C 593.413 713.194, 589.646 713.554, 587.380 713.925 M 640.500 722.358 C 635.175 724.820, 632.675 728.423, 632.752 733.522 C 632.832 738.815, 634.818 742.309, 639.304 745.044 C 648.139 750.431, 659.588 743.763, 659.294 733.402 C 659.189 729.679, 656.651 724.888, 653.862 723.146 C 650.799 721.233, 643.821 720.822, 640.500 722.358" stroke="none" fill="#000000" fill-rule="evenodd"/>
</svg>