<svg xmlns="http://www.w3.org/2000/svg" width="1024" height="1024" viewBox="0 0 1024 1024" version="1.1">
  <path d="M 0 512.001 L 0 1024.002 512.250 1023.751 L 1024.500 1023.500 1024.751 511.750 L 1025.002 0 512.501 0 L 0 0 0 512.001" stroke="none" fill="#000000" fill-rule="evenodd"/>
  <path d="M 400 300 L 400 450 C 400 450, 450 500, 512 500 C 574 500, 624 450, 624 450 L 624 300 L 550 300 L 550 400 C 550 400, 530 430, 512 430 C 494 430, 474 400, 474 400 L 474 300 L 400 300" stroke="none" fill="#ffffff" fill-rule="evenodd"/>
  <path d="M 390 550 L 390 700 L 464 700 L 464 620 C 464 620, 480 590, 512 590 C 544 590, 560 620, 560 620 L 560 700 L 634 700 L 634 550 C 634 550, 574 520, 512 520 C 450 520, 390 550, 390 550" stroke="none" fill="#ffffff" fill-rule="evenodd"/>
</svg> 